<svg width="1440" height="875" viewBox="0 0 1440 875" fill="none" xmlns="http://www.w3.org/2000/svg">
<rect x="-6" width="1449" height="875" fill="#1E3D60"/>
<path d="M435.25 390.215C435.25 454.299 383.3 506.249 319.216 506.249C255.133 506.249 203.183 454.299 203.183 390.215C203.183 326.132 255.133 274.182 319.216 274.182C383.3 274.182 435.25 326.132 435.25 390.215Z" fill="#F99D77"/>
<path d="M359.152 398.723L365.284 408.544" stroke="#C0C0C0"/>
<path opacity="0.6" fill-rule="evenodd" clip-rule="evenodd" d="M309.762 312.391C309.762 324.464 299.975 334.251 287.902 334.251C287.313 334.251 286.73 334.228 286.154 334.182C286.179 333.926 286.193 333.666 286.193 333.403C286.193 329.117 282.719 325.643 278.433 325.643C276.181 325.643 274.153 326.603 272.736 328.135C268.609 324.159 266.041 318.575 266.041 312.391C266.041 300.318 275.829 290.531 287.902 290.531C299.975 290.531 309.762 300.318 309.762 312.391ZM272.103 328.914C267.752 324.752 265.041 318.888 265.041 312.391C265.041 299.766 275.276 289.531 287.902 289.531C300.527 289.531 310.762 299.766 310.762 312.391C310.762 325.016 300.527 335.251 287.902 335.251C287.258 335.251 286.62 335.225 285.99 335.173C285.189 338.605 282.11 341.162 278.433 341.162C274.148 341.162 270.674 337.688 270.674 333.403C270.674 331.73 271.203 330.181 272.103 328.914Z" fill="white"/>
<path opacity="0.6" fill-rule="evenodd" clip-rule="evenodd" d="M417.272 397.773C417.272 414.648 403.593 428.327 386.718 428.327C369.844 428.327 356.164 414.648 356.164 397.773C356.164 380.899 369.844 367.219 386.718 367.219C394.813 367.219 402.172 370.367 407.639 375.505C405.565 377.451 404.269 380.218 404.269 383.287C404.269 389.178 409.045 393.954 414.936 393.954C415.646 393.954 416.339 393.885 417.01 393.752C417.183 395.068 417.272 396.41 417.272 397.773ZM417.987 393.511C418.175 394.905 418.272 396.328 418.272 397.773C418.272 415.2 404.145 429.327 386.718 429.327C369.292 429.327 355.164 415.2 355.164 397.773C355.164 380.347 369.292 366.219 386.718 366.219C395.117 366.219 402.75 369.501 408.404 374.852C410.209 373.452 412.475 372.619 414.936 372.619C420.827 372.619 425.603 377.395 425.603 383.287C425.603 388.118 422.392 392.199 417.987 393.511Z" fill="white"/>
<path opacity="0.6" fill-rule="evenodd" clip-rule="evenodd" d="M276.682 378.642C276.682 388.585 268.621 396.645 258.678 396.645C252.79 396.645 247.563 393.819 244.278 389.449C246.268 388.815 247.709 386.951 247.709 384.75C247.709 382.027 245.501 379.82 242.778 379.82C242.054 379.82 241.365 379.976 240.746 380.257C240.698 379.725 240.674 379.186 240.674 378.642C240.674 368.698 248.735 360.638 258.678 360.638C268.621 360.638 276.682 368.698 276.682 378.642ZM239.798 380.822C239.716 380.106 239.674 379.379 239.674 378.642C239.674 368.146 248.183 359.638 258.678 359.638C269.173 359.638 277.682 368.146 277.682 378.642C277.682 389.137 269.173 397.645 258.678 397.645C252.292 397.645 246.641 394.495 243.195 389.664C243.058 389.675 242.919 389.681 242.778 389.681C240.055 389.681 237.847 387.474 237.847 384.75C237.847 383.147 238.613 381.722 239.798 380.822Z" fill="white"/>
<circle opacity="0.6" cx="362.559" cy="325.643" r="11.0996" fill="white"/>
<circle opacity="0.6" cx="397.678" cy="339.159" r="6.93079" fill="white"/>
<circle opacity="0.6" cx="226.071" cy="346.37" r="6.93079" fill="white"/>
<path d="M373.896 492.551L371.809 476.39L288.137 470.692L285.331 501.082C295.662 505.295 311.199 506.348 317.676 506.348C347.865 506.448 367.735 497.192 373.896 492.551Z" fill="#327CD2"/>
<path d="M276.901 473.704C278.37 475.257 371.251 477.383 371.729 476.797C372.995 475.197 360.98 416.246 351.294 393.709C338.909 364.795 331.851 362.227 327.683 360.508C322.356 358.31 312.658 358.824 310.317 359.803C307.654 360.89 296.129 373.824 292.665 384.274C285.726 405.282 275.611 472.343 276.901 473.704Z" fill="#327CD2"/>
<path d="M342.008 370.025C382.065 400.122 410.626 442.851 407.306 456.084C403.783 470.07 378.843 472.088 347.701 476.176C342.696 476.833 338.905 452.534 344.028 450.85C348.029 449.537 376.669 445.844 378.843 443.36C380.347 441.628 341.729 398.052 332.593 377.355C322.943 355.607 331.283 361.916 342.008 370.025Z" fill="#FFCBAE"/>
<path d="M305.767 487.809C306.352 486.997 306.961 486.197 307.558 485.42C308.687 483.822 309.907 482.291 311.213 480.834C312.515 479.437 313.876 478.099 315.274 476.797C316.671 475.496 318.391 474.206 319.824 472.797C319.833 472.78 319.846 472.767 319.862 472.756C319.878 472.746 319.895 472.74 319.914 472.737C319.933 472.735 319.951 472.738 319.969 472.744C319.986 472.751 320.002 472.761 320.015 472.775C320.028 472.789 320.037 472.805 320.042 472.823C320.047 472.841 320.048 472.86 320.045 472.878C320.041 472.897 320.034 472.914 320.022 472.929C320.011 472.944 319.996 472.956 319.979 472.964C318.536 474.338 317.172 475.793 315.895 477.323C314.593 478.78 313.315 480.249 312.025 481.718C310.735 483.187 309.433 484.501 308.132 485.898C307.487 486.603 306.937 487.331 306.257 488.048C305.717 488.777 305.118 489.461 304.465 490.09C304.449 490.097 304.431 490.099 304.414 490.097C304.397 490.095 304.38 490.088 304.367 490.076C304.353 490.065 304.343 490.051 304.337 490.034C304.331 490.018 304.33 490 304.334 489.983C304.732 489.209 305.213 488.48 305.767 487.809Z" fill="#242E39"/>
<path d="M295.914 482.853C297.915 479.819 300.122 476.926 302.518 474.194C304.954 471.479 307.654 469.015 310.58 466.837C310.687 466.766 310.819 466.909 310.735 467.004C308.347 469.727 305.827 472.403 303.354 475.09C302.16 476.404 296.845 482.53 296.189 483.104C296.033 483.247 295.818 483.032 295.914 482.853Z" fill="#242E39"/>
<path d="M314.915 492.741C316.853 489.924 318.975 487.239 321.269 484.704C323.843 482.356 326.585 480.201 329.474 478.255C329.581 478.255 329.725 478.326 329.629 478.422C327.061 480.81 324.47 483.103 322.033 485.588C320.839 486.782 316.372 491.917 315.13 492.98C315.023 493.028 314.844 492.873 314.915 492.741Z" fill="#242E39"/>
<path d="M387.613 405.402L357.11 425.18C357.11 425.18 334.478 390.139 328.614 373.538C322.75 356.937 329.582 356.901 345.597 368.928C361.613 380.954 387.613 405.402 387.613 405.402Z" fill="#327CD2"/>
<path d="M380.71 401.067C369.077 410.322 357.588 416.593 355.307 418.205C355.2 418.277 355.104 418.097 355.211 418.026C357.528 416.616 369.961 407.468 380.591 400.875C380.71 400.792 380.794 400.983 380.71 401.067Z" fill="#1E3D60"/>
<path d="M359.069 423.866C358.431 424.142 357.812 424.461 357.218 424.821C353.826 418.969 350.171 413.045 346.72 407.217L341.656 398.666C339.912 395.692 338.312 392.587 336.401 389.72C336.396 389.712 336.39 389.704 336.382 389.698C336.375 389.692 336.366 389.687 336.356 389.684C336.347 389.682 336.337 389.681 336.327 389.682C336.318 389.683 336.308 389.686 336.299 389.691C336.291 389.695 336.283 389.702 336.277 389.709C336.271 389.717 336.266 389.726 336.264 389.735C336.261 389.745 336.26 389.754 336.261 389.764C336.262 389.774 336.265 389.783 336.27 389.792C337.513 392.624 338.9 395.39 340.426 398.081C340.115 397.674 339.817 397.245 339.482 396.886C338.73 395.991 337.989 395.095 337.321 394.139C337.213 393.996 336.962 394.139 337.07 394.283C337.715 395.19 338.264 396.134 338.873 397.089C339.482 398.045 340.068 398.952 340.724 399.872C341.381 400.792 342.026 401.592 342.707 402.416C342.78 402.524 342.86 402.628 342.946 402.726C343.877 404.434 344.785 406.142 345.752 407.826C349.144 413.714 356.848 425.574 356.955 425.538C357.732 425.111 358.471 424.62 359.165 424.069C359.212 423.961 359.212 423.842 359.069 423.866Z" fill="#1E3D60"/>
<path d="M292.892 367.184C260.383 384.071 239.887 401.96 224.818 417.699C221.235 426.68 224.972 444.145 228.591 453.927C230.358 458.704 259.363 443.753 255.625 439.8C246.381 430.03 248.619 423.291 249.634 421.309C250.267 420.043 298.064 388.371 308.048 374.445C321.974 355.05 307.117 359.791 292.892 367.184Z" fill="#FFCBAE"/>
<path d="M288.581 480.297C284.329 482.685 279.337 471.71 279.337 471.71C279.181 473.806 278.293 475.78 276.829 477.287C274.13 479.819 268.982 476.69 268.982 476.69C268.361 478.827 267.113 480.728 265.399 482.148C262.569 484.31 256.92 481.909 256.92 481.909C255.267 483.558 253.074 484.555 250.745 484.716C244.511 484.907 239.22 476.989 235.792 471.996C232.365 467.004 227.361 449.603 226.071 446.39L257.971 424.164C257.971 424.164 279.683 442.222 282.872 448.672C285.547 454.106 295.066 476.654 288.581 480.297Z" fill="white"/>
<path d="M279.409 471.555C277.999 465.117 274.93 459.002 272.028 453.174C271.956 453.043 271.753 453.174 271.825 453.27C274.846 459.062 276.387 465.798 279.182 471.686C279.205 471.698 279.231 471.704 279.257 471.703C279.283 471.703 279.309 471.696 279.331 471.683C279.354 471.67 279.373 471.651 279.386 471.629C279.4 471.606 279.408 471.581 279.409 471.555Z" fill="#242E39"/>
<path d="M269.329 476.296C268.85 474.863 268.187 473.498 267.358 472.235C266.558 470.85 265.746 469.476 264.91 468.103C263.226 465.38 261.482 462.693 259.655 460.053C259.571 459.934 259.38 460.053 259.452 460.161C261.124 462.884 262.76 465.631 264.312 468.413C265.089 469.811 265.853 471.22 266.617 472.617C267.244 473.993 268.021 475.295 268.934 476.499C268.967 476.539 269.013 476.566 269.064 476.577C269.114 476.587 269.167 476.58 269.213 476.556C269.259 476.532 269.296 476.494 269.317 476.446C269.338 476.399 269.342 476.346 269.329 476.296Z" fill="#242E39"/>
<path d="M256.848 481.837C256.402 480.541 255.74 479.33 254.889 478.254C254.089 477.06 253.313 475.794 252.501 474.564C250.936 472.092 249.384 469.62 247.915 467.1C247.897 467.081 247.873 467.069 247.847 467.064C247.822 467.06 247.796 467.065 247.773 467.077C247.75 467.089 247.731 467.108 247.72 467.132C247.709 467.155 247.706 467.182 247.712 467.207C249.193 469.775 250.638 472.367 252.143 474.922C252.883 476.117 253.623 477.43 254.376 478.684C254.949 479.889 255.734 480.981 256.693 481.909C256.788 481.909 256.872 481.837 256.848 481.837Z" fill="#242E39"/>
<path d="M245.932 392.491L269.735 415.84C269.735 415.84 301.038 388.12 310.102 373.024C319.167 357.928 312.491 356.519 294.373 365.118C276.256 373.717 245.932 392.491 245.932 392.491Z" fill="#FFC727"/>
<path d="M245.932 392.491L269.735 415.84C269.735 415.84 301.038 388.12 310.102 373.024C319.167 357.928 312.491 356.519 294.373 365.118C276.256 373.717 245.932 392.491 245.932 392.491Z" fill="#327CD2"/>
<path d="M274.679 409.737C263.691 400.398 255.57 390.688 253.683 388.825C253.6 388.729 253.755 388.598 253.838 388.694C255.606 390.628 266.629 400.744 274.858 409.594C274.954 409.702 274.787 409.833 274.679 409.737Z" fill="#1E3D60"/>
<path d="M295.735 378.697C294.54 381.253 293.346 383.797 292.331 386.424C292.331 386.245 292.331 386.078 292.331 385.899C292.46 384.291 292.703 382.695 293.06 381.122C293.06 380.942 292.833 380.859 292.785 381.038C292.427 382.626 292.104 384.239 291.853 385.815C291.722 386.592 291.65 387.368 291.591 388.144C291.596 388.24 291.596 388.335 291.591 388.431C291.584 388.462 291.584 388.495 291.591 388.526C290.396 392.026 289.704 395.609 288.712 399.144C288.708 399.161 288.706 399.179 288.709 399.197C288.711 399.214 288.717 399.232 288.725 399.247C288.734 399.263 288.746 399.276 288.76 399.287C288.774 399.298 288.791 399.306 288.808 399.311C288.825 399.316 288.843 399.317 288.861 399.315C288.879 399.312 288.896 399.307 288.911 399.298C288.927 399.289 288.94 399.277 288.951 399.263C288.962 399.249 288.97 399.233 288.975 399.215C289.954 395.752 291.364 392.396 292.558 389.016C293.752 385.636 294.779 382.185 295.95 378.781C295.986 378.673 295.783 378.578 295.735 378.697Z" fill="#1E3D60"/>
<path d="M312.479 376.468C317.71 377.924 327.167 371.032 331.004 363.678C331.267 363.229 330.621 358.317 330.274 352.432C330.071 348.792 329.928 344.873 330.059 341.233C330.059 340.481 307.367 345.941 307.367 345.941C308.653 351.23 308.166 356.409 308.166 361.701C308.166 366.914 306.392 374.056 312.479 376.468Z" fill="#FFCBAE"/>
<path d="M328.674 341.267C327.408 347.239 323.096 361.81 311.082 361.571C310.313 361.575 308.926 361.381 308.17 361.242C308.162 361.325 308.162 361.158 308.17 361.242C308.17 360.705 308.192 359.654 308.192 359.654C308.192 359.654 308.45 350.331 307.331 345.794C307.331 345.794 323.765 341.984 328.674 341.267Z" fill="#DAAC92"/>
<path d="M328.901 311.445C332.615 318.922 332.257 342.354 327.503 348.362C320.612 357.068 307.439 359.982 299.557 351.276C291.925 342.82 292.94 312.293 298.434 306.644C306.507 298.32 323.383 300.41 328.901 311.445Z" fill="#FFCBAE"/>
<path d="M311.87 330.16C314.402 329.993 314.545 335.093 312.192 335.248C309.84 335.403 309.732 330.316 311.87 330.16Z" fill="#242E39"/>
<path d="M300.154 330.495C297.61 330.375 297.55 335.475 299.903 335.583C302.256 335.69 302.28 330.602 300.154 330.495Z" fill="#242E39"/>
<path d="M314.103 326.076C313.406 326.026 312.712 325.934 312.025 325.801C311.279 325.802 310.554 325.559 309.959 325.108C309.801 324.933 309.705 324.71 309.688 324.474C309.671 324.238 309.732 324.003 309.863 323.807C310.181 323.452 310.588 323.189 311.041 323.044C311.495 322.899 311.979 322.878 312.443 322.982C313.419 323.043 314.336 323.47 315.011 324.177C315.139 324.351 315.217 324.557 315.237 324.772C315.257 324.987 315.218 325.203 315.125 325.398C315.032 325.593 314.888 325.759 314.708 325.878C314.528 325.997 314.319 326.066 314.103 326.076Z" fill="#242E39"/>
<path d="M297.705 326.852C298.41 326.709 299.031 326.47 299.712 326.267C300.448 326.157 301.127 325.809 301.647 325.276C301.779 325.077 301.841 324.84 301.824 324.602C301.806 324.365 301.711 324.139 301.551 323.962C301.184 323.658 300.742 323.459 300.271 323.386C299.8 323.312 299.318 323.367 298.876 323.544C297.911 323.745 297.057 324.304 296.487 325.108C296.384 325.303 296.336 325.522 296.35 325.741C296.363 325.961 296.437 326.173 296.563 326.353C296.689 326.533 296.862 326.676 297.064 326.764C297.265 326.852 297.487 326.882 297.705 326.852Z" fill="#242E39"/>
<path d="M313.494 346.403C313.124 346.773 312.754 347.299 312.192 347.358C311.605 347.363 311.023 347.245 310.485 347.012C310.485 347.012 310.377 347.012 310.413 347.095C310.648 347.399 310.961 347.633 311.318 347.774C311.676 347.915 312.064 347.957 312.443 347.896C312.761 347.801 313.045 347.615 313.257 347.36C313.47 347.105 313.602 346.793 313.638 346.463C313.661 346.367 313.542 346.343 313.494 346.403Z" fill="#242E39"/>
<path d="M306.949 343.716C307.639 344.566 308.535 345.224 309.553 345.627C310.12 345.807 310.729 345.807 311.297 345.627C312.551 345.256 312.551 344.098 312.288 343.119C312.142 342.596 311.938 342.091 311.679 341.614C310.369 342.805 308.711 343.542 306.949 343.716Z" fill="#242E39"/>
<path d="M309.553 345.686C310.12 345.867 310.729 345.867 311.297 345.686C312.551 345.316 312.551 344.158 312.288 343.178C311.615 343.224 310.978 343.498 310.481 343.953C309.984 344.409 309.657 345.02 309.553 345.686Z" fill="#FF98B9"/>
<path opacity="0.2" d="M331.397 328.07C329.868 327.784 326.333 322.493 324.816 320.391C323.3 318.289 322.702 307.182 322.619 304.674C325.31 306.292 327.489 308.64 328.901 311.445C330.549 314.79 331.397 321.322 331.397 328.07Z" fill="#242E39"/>
<path d="M303.331 313.309C304.216 314.332 305.347 315.112 306.618 315.576C307.888 316.04 309.256 316.172 310.592 315.96C311.959 315.741 313.247 315.175 314.332 314.315C315.418 313.456 316.264 312.332 316.79 311.052C316.79 310.98 316.934 311.052 316.91 311.052C316.47 312.441 315.659 313.683 314.564 314.645C313.47 315.607 312.134 316.251 310.7 316.51C309.279 316.69 307.836 316.493 306.516 315.94C305.195 315.386 304.043 314.495 303.175 313.357C303.08 313.333 303.247 313.213 303.331 313.309Z" fill="#242E39"/>
<path d="M311.44 293.674C316.038 293.758 320.266 296.278 321.974 299.395C322.916 301.17 323.232 303.211 322.87 305.187C322.87 305.271 322.69 305.259 322.702 305.187C322.785 303.438 322.397 301.698 321.577 300.149C320.758 298.601 319.538 297.301 318.045 296.385C316.411 295.323 314.553 294.654 312.618 294.432C310.682 294.211 308.721 294.442 306.89 295.107C305.106 295.726 303.597 296.952 302.626 298.571C302.542 298.738 302.196 298.571 302.268 298.451C303.486 295.525 307.26 293.614 311.44 293.674Z" fill="#242E39"/>
<path d="M284.783 303.802C285.517 301.524 287.037 299.581 289.071 298.32C291.877 296.564 295.042 296.803 298.231 297.126C298.326 297.126 298.314 297.269 298.231 297.257C295.532 297.006 292.785 296.911 290.313 298.2C288.264 299.242 286.642 300.965 285.726 303.073C284.847 305.237 284.777 307.645 285.53 309.857C286.282 312.068 287.806 313.933 289.823 315.112C291.001 315.762 292.299 316.165 293.638 316.294C294.978 316.423 296.329 316.277 297.61 315.864C297.705 315.864 297.777 315.972 297.681 316.02C295.95 316.655 294.076 316.795 292.269 316.424C290.463 316.052 288.796 315.184 287.456 313.917C286.116 312.65 285.155 311.035 284.683 309.252C284.211 307.469 284.246 305.59 284.783 303.826V303.802Z" fill="#242E39"/>
<path d="M330.453 316.008C330.453 316.008 334.729 307.743 331.039 303.014C328.937 300.338 322.081 300.768 322.081 300.768C320.22 298.058 317.359 296.198 314.127 295.597C308.371 294.403 301.575 297.771 301.575 297.771C301.575 297.771 296.093 294.701 291.017 297.675C283.935 301.819 284.938 312.664 292.14 316.079C297.204 318.468 303.999 313.942 303.999 313.942C304.656 314.025 311.428 318.014 316.456 311.959C316.456 311.959 320.624 315.542 324.315 312.974C324.903 314.048 325.808 314.916 326.906 315.458C328.004 316.001 329.243 316.193 330.453 316.008Z" fill="#242E39"/>
<path d="M327.133 330.793C327.133 330.793 331.206 322.66 334.824 324.01C338.443 325.359 336.126 336.621 332.436 338.664C331.977 338.959 331.464 339.158 330.926 339.249C330.389 339.341 329.839 339.322 329.308 339.195C328.778 339.068 328.279 338.834 327.842 338.509C327.404 338.184 327.037 337.773 326.763 337.302L327.133 330.793Z" fill="#FFCBAE"/>
<path d="M334.132 327.222C334.191 327.222 334.215 327.294 334.132 327.33C331.54 328.846 330.465 331.617 329.832 334.412C329.952 334.113 330.136 333.844 330.37 333.622C330.604 333.401 330.883 333.233 331.189 333.13C331.494 333.026 331.818 332.99 332.138 333.024C332.459 333.058 332.768 333.161 333.045 333.325C333.129 333.325 333.045 333.492 333.045 333.48C332.544 333.392 332.029 333.458 331.567 333.672C331.106 333.886 330.721 334.236 330.465 334.675C330.052 335.432 329.723 336.233 329.486 337.063C329.39 337.338 328.925 337.266 328.984 336.968C328.351 333.445 330.358 328.13 334.132 327.222Z" fill="#242E39"/>
<path d="M333.594 364.891C331.14 367.945 328.516 370.86 325.736 373.621C323.049 376.129 319.764 378.398 316.181 378.757C312.598 379.115 309.016 378.422 307.69 374.075C306.615 370.623 306.758 367.064 307.332 362.621C307.332 362.587 307.318 362.553 307.293 362.529C307.268 362.504 307.235 362.49 307.2 362.49C307.165 362.49 307.132 362.504 307.107 362.529C307.083 362.553 307.069 362.587 307.069 362.621C306.304 368.33 305.54 377.18 310.735 379.103C316.564 381.265 322.225 378.219 326.261 374.182C329.077 371.408 331.584 368.337 333.738 365.022C333.738 364.915 333.642 364.795 333.594 364.891Z" fill="#1E3D60"/>
<path d="M290.032 471.21C290.048 472.017 289.902 472.818 289.604 473.568C289.305 474.317 288.86 474.999 288.294 475.574C287.728 476.148 287.053 476.604 286.308 476.914C285.563 477.224 284.764 477.382 283.958 477.379C282.314 477.373 280.737 476.725 279.565 475.572C278.392 474.42 277.717 472.854 277.684 471.21C277.663 470.403 277.805 469.6 278.101 468.849C278.397 468.097 278.841 467.413 279.407 466.837C279.972 466.26 280.648 465.803 281.393 465.493C282.139 465.183 282.939 465.025 283.747 465.03C285.393 465.039 286.971 465.69 288.145 466.844C289.319 467.998 289.996 469.565 290.032 471.21Z" fill="white"/>
<path d="M311.671 341.877C311.381 342.401 310.984 342.858 310.507 343.22C310.03 343.582 309.482 343.84 308.899 343.978C308.392 344.116 307.867 344.172 307.342 344.143C307.246 344.156 307.148 344.156 307.051 344.143H306.773C306.703 344.135 306.639 344.105 306.588 344.057C306.538 344.009 306.505 343.946 306.494 343.877V343.662V343.548C306.406 342.573 306.406 341.016 306.406 341.016C306.064 341.219 304.292 342.156 304.292 341.637C304.14 337.251 304.433 332.862 305.165 328.535C305.173 328.51 305.189 328.488 305.211 328.472C305.233 328.457 305.259 328.448 305.285 328.448C305.312 328.448 305.338 328.457 305.36 328.472C305.381 328.488 305.397 328.51 305.406 328.535C305.57 332.624 305.013 336.7 305.114 340.801C305.748 340.461 306.425 340.21 307.127 340.054C307.266 340.054 307.064 342.94 307.127 343.383C307.925 343.421 308.723 343.298 309.474 343.022C310.224 342.746 310.911 342.322 311.494 341.776C311.633 341.7 311.735 341.776 311.671 341.877Z" fill="#242E39"/>
<path d="M382.784 495.897H255.032V501.719H382.784C383.888 501.719 384.784 500.823 384.784 499.719V497.897C384.784 496.792 383.888 495.897 382.784 495.897Z" fill="white"/>
<path opacity="0.5" d="M357.004 495.897L361.454 501.719H255.032V495.897H357.004Z" fill="#62778F"/>
<path d="M351.46 501.24H225.006L215.448 423.213C214.937 419.04 218.192 415.361 222.396 415.361H332.09C337.143 415.361 341.402 419.13 342.016 424.146L351.46 501.24Z" fill="#E7EAEE"/>
<path d="M290.676 458.779C290.696 459.785 290.514 460.784 290.142 461.718C289.77 462.652 289.215 463.502 288.509 464.218C287.804 464.935 286.962 465.503 286.034 465.889C285.106 466.276 284.109 466.473 283.104 466.468C281.055 466.461 279.09 465.653 277.628 464.216C276.167 462.779 275.325 460.828 275.284 458.779C275.258 457.773 275.435 456.772 275.804 455.835C276.173 454.899 276.726 454.046 277.431 453.327C278.136 452.609 278.979 452.039 279.908 451.652C280.837 451.266 281.835 451.07 282.841 451.076C284.893 451.087 286.86 451.898 288.323 453.336C289.787 454.775 290.631 456.728 290.676 458.779Z" fill="#064EA4"/>
</svg>
